<svg height="72.628" viewBox="0 0 159.999 72.628" width="159.999" xmlns="http://www.w3.org/2000/svg"><g fill="#6e6e6e"><path d="m65.226 156.549h-2.072v-1.155h5.576v1.155h-2.071v5.722h-1.433z" transform="translate(-27.454 -89.763)"/><path d="m76.045 158.743a3.693 3.693 0 1 1 3.7 3.544 3.5 3.5 0 0 1 -3.7-3.544zm5.882 0a2.2 2.2 0 1 0 -2.191 2.4 2.171 2.171 0 0 0 2.19-2.4z" transform="translate(-33.069 -89.659)"/><path d="m92.957 158.73a3.567 3.567 0 0 1 3.877-3.571 3.912 3.912 0 0 1 2.336.625l-.624 1.048a2.985 2.985 0 0 0 -1.74-.492 2.144 2.144 0 0 0 -2.35 2.351 2.188 2.188 0 0 0 2.284 2.456 2.72 2.72 0 0 0 1.341-.292v-1.421h-1.354v-1.049h2.722v3.2a4.408 4.408 0 0 1 -2.722.7 3.494 3.494 0 0 1 -3.77-3.555z" transform="translate(-40.435 -89.659)"/><path d="m109.378 155.394h4.341v1.129h-2.934v1.646h2.615v1.075h-2.616v1.9h3.016v1.128h-4.421z" transform="translate(-47.587 -89.763)"/><path d="m122.787 156.549h-2.071v-1.155h5.576v1.155h-2.071v5.722h-1.434z" transform="translate(-52.524 -89.763)"/><path d="m134.618 155.394h1.42v2.722h3.372v-2.722h1.408v6.877h-1.408v-2.986h-3.372v2.986h-1.42z" transform="translate(-58.581 -89.763)"/><path d="m150.967 155.394h4.342v1.129h-2.935v1.646h2.616v1.075h-2.616v1.9h3.014v1.128h-4.421z" transform="translate(-65.702 -89.763)"/><path d="m163.645 155.394h2.337c1.672 0 2.642.677 2.642 1.965a1.823 1.823 0 0 1 -1.766 1.832v.013a4.335 4.335 0 0 1 .862 1l1.461 2.071h-1.581l-1.327-1.965c-.544-.81-.73-.89-1.1-.89h-.106v2.854h-1.421zm2.3 3.028c.862 0 1.248-.345 1.248-.982 0-.664-.4-.97-1.315-.97h-.809v1.952z" transform="translate(-71.224 -89.763)"/><path d="m184.393 155.394h1.42v6.877h-1.42z" transform="translate(-80.261 -89.763)"/><path d="m193.12 156.549h-2.071v-1.155h5.576v1.155h-2.072v5.722h-1.433z" transform="translate(-83.159 -89.763)"/><path d="m210.407 155.394h1.487l1.009 3.743c.159.585.266 1.249.266 1.249h.027s.146-.69.319-1.3l1.035-3.691h1.368l1.022 3.677c.16.6.292 1.3.292 1.3h.027s.132-.7.278-1.261l1.009-3.717h1.328l-1.965 6.877h-1.315l-1.075-3.957c-.159-.57-.319-1.315-.319-1.315h-.026s-.16.745-.332 1.315l-1.168 3.957h-1.315z" transform="translate(-91.591 -89.763)"/><path d="m230.283 158.743a3.693 3.693 0 1 1 3.705 3.544 3.5 3.5 0 0 1 -3.705-3.544zm5.882 0a2.2 2.2 0 1 0 -2.191 2.4 2.171 2.171 0 0 0 2.191-2.4z" transform="translate(-100.247 -89.659)"/><path d="m247.948 155.394h2.337c1.672 0 2.642.677 2.642 1.965a1.823 1.823 0 0 1 -1.766 1.832v.013a4.364 4.364 0 0 1 .862 1l1.461 2.071h-1.584l-1.328-1.965c-.544-.81-.73-.89-1.1-.89h-.106v2.854h-1.421zm2.3 3.028c.862 0 1.247-.345 1.247-.982 0-.664-.4-.97-1.314-.97h-.809v1.952z" transform="translate(-107.942 -89.763)"/><path d="m265.895 155.394h1.58l-2.642 3.212 2.735 3.665h-1.58l-2.695-3.558v3.558h-1.421v-6.877h1.421v3.186z" transform="translate(-114.007 -89.763)"/><path d="m274.974 161.624.6-1a2.525 2.525 0 0 0 1.553.531c.743 0 1.221-.293 1.221-.811 0-.637-.65-.8-1.633-1.248-.89-.411-1.567-.93-1.567-2.017 0-1.249 1.062-1.925 2.31-1.925a3.555 3.555 0 0 1 2.058.557l-.571 1a2.61 2.61 0 0 0 -1.421-.424c-.6 0-1.022.239-1.022.744 0 .571.544.743 1.327 1.075.97.426 1.885.929 1.885 2.151 0 1.275-.969 2.03-2.549 2.03a3.438 3.438 0 0 1 -2.191-.663z" transform="translate(-119.714 -89.659)"/></g><path d="m8.9 106.155a5.567 5.567 0 0 0 -3.951 1.693v-8.93h-5.044v23.005a17.391 17.391 0 0 0 7.071 1.294c4.979 0 8.8-2.921 8.8-8.664s-2.925-8.398-6.876-8.398zm-1.924 13.145a6.043 6.043 0 0 1 -2.025-.3v-7.768a3.338 3.338 0 0 1 2.456-1.132c2.059 0 3.021 1.527 3.021 4.448 0 3.323-1.361 4.752-3.452 4.752z" fill="#f29232" transform="translate(.095 -65.163)"/><path d="m45.516 117.947c0-4.448-2.157-6.208-6.871-6.208a10.117 10.117 0 0 0 -6.839 2.389l2.125 3.021a6.939 6.939 0 0 1 4.083-1.461c1.959 0 2.456.7 2.456 1.892v.764h-.531c-4.382 0-8.63 1.626-8.63 5.809 0 2.988 2.191 4.647 4.979 4.647a5.612 5.612 0 0 0 4.448-2.092 8.572 8.572 0 0 0 .3 1.694h4.946a25.014 25.014 0 0 1 -.465-5.145zm-5.046 6.141a3.429 3.429 0 0 1 -2.556 1.162c-1.029 0-1.825-.5-1.825-1.527 0-1.659 1.56-2.357 3.85-2.357h.531z" fill="#f29232" transform="translate(-13.585 -70.747)"/><path d="m35.948 33.755h5.045v23.901h-5.045z" fill="#f29232"/><path d="m45.474 41.39h5.112v16.266h-5.112z" fill="#f29232"/><ellipse cx="48.029" cy="36.709" fill="#f29232" rx="2.987" ry="2.888"/><path d="m103.412 111.739c-5.71 0-8.3 4.315-8.3 8.6s2.622 8.464 8.332 8.464c5.743 0 8.365-4.415 8.365-8.63.001-4.285-2.654-8.434-8.397-8.434zm.133 13.311c-2.257 0-3.088-1.992-3.088-4.88 0-2.855.664-4.747 2.922-4.747s3.087 2.025 3.087 4.913-.666 4.714-2.921 4.714z" fill="#f29232" transform="translate(-41.374 -70.747)"/><path d="m134.526 119.463c-1.759-.73-3.054-1.36-3.054-2.853 0-1.362.962-2.192 2.655-2.192a5.764 5.764 0 0 1 3.552 1.195l1.195-1.759a7.488 7.488 0 0 0 -4.714-1.527c-3.186 0-5.044 1.925-5.044 4.382 0 2.722 1.891 3.851 4.381 4.913 2.323 1 3.519 1.627 3.519 3.088s-1.262 2.29-3.253 2.29a6.874 6.874 0 0 1 -3.951-1.295l-1.062 1.859a8.9 8.9 0 0 0 5.046 1.527c3.486 0 5.677-1.826 5.677-4.714-.001-2.689-2.357-3.818-4.947-4.914z" fill="#f29232" transform="translate(-56.024 -71.003)"/><path d="m159.954 112.327c-5.378 0-7.271 4.681-7.271 8.4s1.992 8.332 7.37 8.332 7.5-4.68 7.5-8.4-2.222-8.332-7.599-8.332zm.133 14.638c-3.32 0-4.813-2.887-4.813-6.307s1.327-6.24 4.647-6.24 5.045 2.887 5.045 6.307-1.56 6.24-4.879 6.24z" fill="#f29232" transform="translate(-66.45 -71.003)"/><path d="m190.957 100.336a5.049 5.049 0 0 1 2.092.4l.63-2.092a6.326 6.326 0 0 0 -2.656-.432c-3.684 0-5.81 2.357-5.81 6.009v2.357h-2.653v1.922h2.654v14.009h2.424v-14.009h4.05v-1.925h-4.05v-2.191c0-2.62 1.195-4.048 3.319-4.048z" fill="#f29232" transform="translate(-79.462 -64.854)"/><path d="m208.4 123.764c-1.394 0-1.859-.763-1.859-2.357v-9.958h4.017v-1.925h-4.017v-4.547h-2.423v4.547h-2.622v1.925h2.622v10.191c0 2.656 1.327 4.215 3.984 4.215a6.147 6.147 0 0 0 3.352-.962l-.9-1.825a4.063 4.063 0 0 1 -2.154.696z" fill="#f29232" transform="translate(-87.708 -67.802)"/><path d="m190.346 62.862-.148-.025a7.528 7.528 0 0 0 -2.376.045 6.649 6.649 0 0 1 2.147.47 2.45 2.45 0 0 0 1.006.993 3.15 3.15 0 0 0 .717.292 2.392 2.392 0 0 1 -1.346-1.775z" fill="#f29232" transform="translate(-81.755 -49.415)"/><path d="m221.507 78.959 1.076.312c0 .037.527-1.009-.217-1.509a3.262 3.262 0 0 0 -2.3-.141 1.983 1.983 0 0 1 1.441 1.338z" fill="#f29232" transform="translate(-95.8 -55.819)"/><path d="m170.195 60.917c-.011-.052-.021-.1-.034-.156a1.619 1.619 0 0 0 -.623-.851 4.832 4.832 0 0 0 -1.433-.71 3.882 3.882 0 0 1 -.476-.3q-.614-.494-1.246-.964c-1.485-1.115-3.024-2.16-4.6-3.139q-1.563-.968-3.174-1.846a.4.4 0 0 1 -.182-.14c-.052-.075-.1-.148-.155-.222l-.5-.724-.808-1.167a5.383 5.383 0 0 0 -.755-.829 11.2 11.2 0 0 0 -1.18-.957 19.272 19.272 0 0 0 -5.287-2.551 2.16 2.16 0 0 0 -.115-2.3c-.908.962-2.2.4-3.242-.3-.652-.437-1.292-.895-1.97-1.29a24.618 24.618 0 0 0 -5.682-2.384 25.955 25.955 0 0 0 -6.742-.969 25.042 25.042 0 0 0 -11.091 2.306c3.553.3 6.19.767 6.255 1.685.013.169-.324.166-.44.166-.742-.005-1.482-.086-2.222-.127-1.04-.059-2.084-.085-3.124-.064a44.8 44.8 0 0 0 -6.461.62 28.024 28.024 0 0 0 -5.979 1.668 25.09 25.09 0 0 0 -4.385 2.3 22.265 22.265 0 0 0 -2.886 2.262 16.1 16.1 0 0 0 -1.465 1.537c-.327.4-.608.828-.9 1.245.431-.17.86-.345 1.293-.51a24.585 24.585 0 0 1 3.187-1.024 4.31 4.31 0 0 1 .779-.128 1.026 1.026 0 0 1 .339.029c.062.019.063.032.044.093a12.021 12.021 0 0 1 -10.01 4.667s7.038 3.075 14-.732 9.45-4.177 9.45-4.177a49.267 49.267 0 0 0 -15.918 12c18.083-15.732 30.8-16.134 36.215-16.137a21.282 21.282 0 0 1 2.67.14h.019a14.386 14.386 0 0 0 2.533.839 7.923 7.923 0 0 1 -4.134-4.308 14.5 14.5 0 0 1 3.1.923 10.11 10.11 0 0 1 4.657 3.648l-.078-.981c6.373 1.558 8.384 4.273 8.46 4.373l1.689 2.439.1.056a63.294 63.294 0 0 1 7.962 5.074 4.178 4.178 0 0 0 -2.2.433c1.627.186 4.05.559 5.419 1.61a15.605 15.605 0 0 0 -.115 1.986c0 .776.044 1.429.07 1.756l-.014.012c-.1.1-.246.248-.411.407a12.685 12.685 0 0 1 -1.082.954 2.462 2.462 0 0 0 -.829 1.388c-.109.415-.394.224-.394.224a15.119 15.119 0 0 0 -6.01-4.53 24.823 24.823 0 0 1 5.063 4.849 4.426 4.426 0 0 1 -4.346-.034c-1.2-.7-2.155-2.728-4.882-3.4-2.8-.692-5.068-.042-6.8.236-6.532 1.044-9.294-2.56-9.866-3.6a5.123 5.123 0 0 1 .336-5.758 4.51 4.51 0 0 0 -1.849 1.767 15.916 15.916 0 0 0 -4.762-.307c-3.309.13-11.45.387-22.608 11.91 9.024-7.974 19.034-11.64 26.831-9.524a7.22 7.22 0 0 0 .939 3.359c0 .006.007.011.01.016-6.19.639-11.508 8.333-6.115 16.114a7.018 7.018 0 0 1 2.761-.5 7.393 7.393 0 0 1 2.674.435c-9.36-7.677-2.922-14.166 2.287-14.45a12.962 12.962 0 0 0 4.143 1.517 18.5 18.5 0 0 0 5.524-.2c2.929-.573 4.479-.909 6.6-.236 2.791.887 3.423 2.478 4.478 3.267 1.322.988 2.863 1.482 5.456.438.049-.024.369.042.587.008.255-.039 1.057-.29 1.306-1.608a.671.671 0 0 1 .177-.286c.058-.06 1.545-1.375 1.869-1.71.081-.086.164-.173.247-.257.062-.067.008-.22 0-.3-.105-1 .056-4.026.051-4.069z" fill="#f29232" transform="translate(-41.292 -39.116)"/><path d="m190.7 63.066a3.263 3.263 0 0 0 1.136 0 3.174 3.174 0 0 0 1.14-.448 1.615 1.615 0 0 0 1.11-.126 6.11 6.11 0 0 0 -2.888-2.136l-.019-.006a41.427 41.427 0 0 0 -8.433.415s4.88.312 6.125.331a3.023 3.023 0 0 0 .419 1.044 2.094 2.094 0 0 0 1.41.926z" fill="#f29232" transform="translate(-79.544 -48.339)"/></svg>