<svg xmlns="http://www.w3.org/2000/svg" width="154.559" height="35.907" viewBox="0 0 154.559 35.907">
  <g id="Group_10" data-name="Group 10" transform="translate(-137.657 -97.286)">
    <g id="Group_9" data-name="Group 9" transform="translate(198.993 97.287)">
      <path id="Path_14" data-name="Path 14" d="M159.872,97.286a6.963,6.963,0,0,1,5.694,2.52,8.659,8.659,0,0,1,1.864,5.846V124.2a8.659,8.659,0,0,1-1.864,5.846,7.76,7.76,0,0,1-11.439,0,8.911,8.911,0,0,1-1.865-5.846H156.5a4.773,4.773,0,0,0,.907,3.175,3.048,3.048,0,0,0,2.469.957,3.239,3.239,0,0,0,2.469-.957,5.1,5.1,0,0,0,.857-3.175v-3.578a7.768,7.768,0,0,1-3.326.706,7.019,7.019,0,0,1-5.745-2.52,9.109,9.109,0,0,1-1.865-5.9v-7.256a8.9,8.9,0,0,1,1.865-5.846A7.019,7.019,0,0,1,159.872,97.286Zm2.469,18.8a5.1,5.1,0,0,0,.857-3.175v-7.256a5.009,5.009,0,0,0-.857-3.124,3.155,3.155,0,0,0-2.469-1.008,3.061,3.061,0,0,0-2.469,1.008,4.686,4.686,0,0,0-.907,3.124v7.256a4.773,4.773,0,0,0,.907,3.175,2.972,2.972,0,0,0,2.469,1.008A3.061,3.061,0,0,0,162.341,116.082Z" transform="translate(-152.263 -97.286)" fill="#1a1818"></path>
    </g>
    <path id="Path_15" data-name="Path 15" d="M154.942,97.436v34.922h-5.493l-7.563-24.646v24.646h-4.229V97.436H143.2l7.508,24.692V97.436Z" transform="translate(0 0.481)" fill="#1a1818"></path>
    <path id="Path_16" data-name="Path 16" d="M162.739,100.01a5.429,5.429,0,0,0-2.368.529,6.1,6.1,0,0,0-1.94,1.461,7.053,7.053,0,0,0-1.31,2.167,7.252,7.252,0,0,0-.479,2.646v16.73h3.88v-16.73a2.923,2.923,0,0,1,5.846,0v16.73h3.88V100.01h-3.88v1.562a5.505,5.505,0,0,0-1.663-1.134A4.766,4.766,0,0,0,162.739,100.01Z" transform="translate(60.74 8.717)" fill="#1a1818"></path>
    <path id="Path_17" data-name="Path 17" d="M160.842,100.01h3.876v3.028h-3.876Zm0,5.153h3.876v18.381h-3.876Z" transform="translate(74.177 8.717)" fill="#1a1818"></path>
    <path id="Path_18" data-name="Path 18" d="M170.234,100.01a5.429,5.429,0,0,1,2.368.529,6.1,6.1,0,0,1,1.94,1.461,7.051,7.051,0,0,1,1.31,2.167,7.254,7.254,0,0,1,.479,2.646v16.73h-3.88v-16.73a2.923,2.923,0,0,0-5.846,0v16.73h-3.88V100.01h3.88v1.562a5.5,5.5,0,0,1,1.663-1.134A4.752,4.752,0,0,1,170.234,100.01Z" transform="translate(80.205 8.717)" fill="#1a1818"></path>
    <path id="Path_19" data-name="Path 19" d="M173.608,114.977a6.77,6.77,0,0,1-2.923-.554v1.965q0,3.628,2.923,3.628t2.923-3.628h3.884a8.326,8.326,0,0,1-1.663,5.291,5.7,5.7,0,0,1-2.221,1.663,7.431,7.431,0,0,1-2.923.554,6.265,6.265,0,0,1-5.14-2.217,8.047,8.047,0,0,1-1.663-5.291v-8.919a9.842,9.842,0,0,1,.407-2.9,5.968,5.968,0,0,1,1.256-2.293,6.2,6.2,0,0,1,5.14-2.268,7.431,7.431,0,0,1,2.923.554,5.518,5.518,0,0,1,2.221,1.713,7.786,7.786,0,0,1,1.663,5.19,8.116,8.116,0,0,1-1.663,5.241,5.518,5.518,0,0,1-2.221,1.713A7.431,7.431,0,0,1,173.608,114.977Zm0-11.086q-2.923,0-2.923,3.578,0,3.628,2.923,3.628t2.923-3.628Q176.531,103.89,173.608,103.89Z" transform="translate(93.255 8.717)" fill="#1a1818"></path>
    <path id="Path_20" data-name="Path 20" d="M142.582,100.148h3.876v3.032h-3.876Zm0,5.157h3.876v18.376h-3.876Z" transform="translate(15.757 9.158)" fill="#1a1818"></path>
    <path id="Path_21" data-name="Path 21" d="M151.974,100.148a5.428,5.428,0,0,1,2.368.529,6.1,6.1,0,0,1,1.94,1.461,7.049,7.049,0,0,1,1.31,2.167,7.253,7.253,0,0,1,.479,2.646v16.73h-3.88v-16.73a2.923,2.923,0,0,0-5.846,0v16.73h-3.88V100.148h3.88v1.562a5.506,5.506,0,0,1,1.663-1.134A4.751,4.751,0,0,1,151.974,100.148Z" transform="translate(21.785 9.158)" fill="#1a1818"></path>
    <path id="Path_22" data-name="Path 22" d="M155.352,115.115a6.777,6.777,0,0,1-2.927-.554v1.965q0,3.628,2.927,3.628t2.919-3.628h3.884a8.326,8.326,0,0,1-1.663,5.291,5.7,5.7,0,0,1-2.221,1.663,7.424,7.424,0,0,1-2.919.554,6.268,6.268,0,0,1-5.144-2.217,8.047,8.047,0,0,1-1.663-5.291v-8.919a9.842,9.842,0,0,1,.407-2.9,5.967,5.967,0,0,1,1.256-2.293,6.207,6.207,0,0,1,5.144-2.268,7.424,7.424,0,0,1,2.919.554,5.517,5.517,0,0,1,2.221,1.713,7.787,7.787,0,0,1,1.663,5.19,8.116,8.116,0,0,1-1.663,5.241,5.518,5.518,0,0,1-2.221,1.713A7.424,7.424,0,0,1,155.352,115.115Zm0-11.086q-2.929,0-2.927,3.578,0,3.628,2.927,3.628t2.919-3.628Q158.271,104.028,155.352,104.028Z" transform="translate(34.835 9.158)" fill="#1a1818"></path>
    <rect id="Rectangle_13" data-name="Rectangle 13" width="74.834" height="3.779" rx="0.309" transform="translate(217.381 103.304)" fill="#1a1818"></rect>
    <rect id="Rectangle_14" data-name="Rectangle 14" width="38.999" height="3.307" rx="0.394" transform="translate(158.337 103.304)" fill="#1a1818"></rect>
    <rect id="Rectangle_15" data-name="Rectangle 15" width="3.779" height="34.973" rx="0.45" transform="translate(277.964 97.286)" fill="#1a1818"></rect>
  </g>
</svg>