<svg width="700" height="209" viewBox="0 0 700 209" fill="none" xmlns="http://www.w3.org/2000/svg"><path d="M700 139.103H433.476V4.07227H700V139.103ZM646.238 18.5631C640.636 18.5631 634.985 18.5631 629.434 18.5631C624.958 18.5631 622.307 21.3387 622.245 25.8273C622.245 28.3278 622.245 30.9284 622.245 33.479C622.245 61.8856 622.245 90.2879 622.245 118.686C622.245 123.687 624.995 126.388 629.934 126.388C640.136 126.388 650.338 126.513 660.541 126.313C664.177 126.244 667.792 125.736 671.306 124.8C678.632 122.825 684.309 117.548 684.534 108.384C684.684 102.495 684.771 96.5811 684.421 90.7047C684.31 87.8424 683.55 85.0428 682.199 82.5173C680.847 79.9918 678.939 77.8065 676.62 76.1264C675.194 75.0636 673.494 74.3884 671.956 73.4507C671.728 73.3149 671.531 73.1339 671.376 72.9189C671.221 72.7038 671.112 72.4593 671.056 72.2004C671.217 71.7598 671.52 71.3857 671.918 71.1377C672.165 70.9703 672.434 70.8397 672.719 70.7501C676.05 69.3697 678.917 67.0666 680.984 64.1119C683.05 61.1572 684.23 57.6737 684.384 54.0713C684.766 47.7839 684.766 41.4793 684.384 35.1919C684.295 32.6231 683.561 30.1179 682.25 27.9068C680.939 25.6958 679.093 23.8499 676.882 22.539C672.689 19.9613 667.864 18.5939 662.941 18.5881C657.49 18.4506 651.864 18.5756 646.238 18.5756V18.5631ZM452.105 72.3255C452.105 87.629 452.105 102.928 452.105 118.224C452.095 119.025 452.129 119.826 452.205 120.624C452.317 122.193 453.03 123.658 454.194 124.715C455.358 125.772 456.885 126.34 458.457 126.3C461.408 126.3 464.358 126.3 467.309 126.3C468.763 126.333 470.182 125.857 471.323 124.956C472.464 124.055 473.255 122.784 473.56 121.362C473.77 120.439 473.866 119.494 473.848 118.549C473.848 107.796 473.848 97.0478 473.848 86.3037C473.836 85.4672 473.89 84.631 474.01 83.8031C474.1 82.5518 474.671 81.3839 475.604 80.5447C476.536 79.7054 477.758 79.2601 479.012 79.3021C481.85 79.1771 484.713 79.1646 487.551 79.3021C488.822 79.2645 490.058 79.7263 490.993 80.5887C491.928 81.4511 492.487 82.6454 492.552 83.9157C492.66 84.7069 492.706 85.5053 492.69 86.3037C492.69 97.3062 492.69 108.305 492.69 119.299C492.69 123.3 495.29 126.225 498.941 126.313C502.092 126.388 505.243 126.388 508.393 126.313C509.542 126.372 510.679 126.06 511.636 125.423C512.593 124.786 513.319 123.857 513.707 122.775C514.241 121.278 514.512 119.7 514.507 118.111C514.549 88.6626 514.549 59.21 514.507 29.7532C514.507 27.9028 514.507 26.0023 514.345 24.2144C514.305 23.4237 514.109 22.6487 513.768 21.9341C513.427 21.2195 512.949 20.5793 512.359 20.0506C511.77 19.5218 511.082 19.1148 510.335 18.8531C509.588 18.5914 508.796 18.48 508.006 18.5256H499.954C495.415 18.5256 492.777 21.1387 492.74 25.6647C492.74 28.5154 492.74 31.3661 492.74 34.2167C492.74 42.552 492.74 50.8872 492.74 59.2225C492.74 62.8858 491.339 64.7237 487.739 65.0613C484.757 65.3366 481.756 65.3366 478.774 65.0613C475.536 64.7737 474.386 63.3734 473.985 60.1477C473.951 59.5981 473.951 59.0469 473.985 58.4973C473.985 49.5452 473.985 40.5932 473.985 31.6411C473.985 29.3406 473.985 27.04 473.985 24.7395C473.946 23.046 473.237 21.4372 472.014 20.2654C470.79 19.0937 469.153 18.4545 467.459 18.4881C464.458 18.4881 461.458 18.4881 458.457 18.4881C457.118 18.4379 455.803 18.858 454.741 19.6756C453.679 20.4932 452.937 21.6566 452.643 22.9641C452.348 24.3779 452.222 25.8216 452.268 27.2651C452.151 42.3352 452.101 57.372 452.118 72.3755L452.105 72.3255ZM537.337 66.5617C537.337 79.4646 537.337 92.3676 537.337 105.321C537.315 107.316 537.453 109.311 537.75 111.284C538.057 113.852 538.976 116.308 540.429 118.447C541.882 120.586 543.828 122.344 546.102 123.575C549.85 125.499 554.018 126.457 558.23 126.363C564.481 126.363 570.833 126.425 577.134 126.363C579.676 126.37 582.214 126.169 584.723 125.763C592.225 124.425 597.351 120.349 599.077 112.772C599.65 109.892 599.906 106.957 599.839 104.02C599.898 77.9143 599.898 51.8124 599.839 25.7147C599.839 20.7136 597.714 18.6256 592.713 18.6256H585.211C580.21 18.6256 577.959 20.8136 577.959 25.8148C577.959 51.7708 577.959 77.7225 577.959 103.67C577.959 104.52 577.959 105.371 577.872 106.171C577.864 107.037 577.678 107.892 577.327 108.683C576.975 109.475 576.464 110.185 575.827 110.772C575.189 111.358 574.438 111.806 573.62 112.09C572.802 112.374 571.934 112.487 571.07 112.422H565.369C564.133 112.51 562.904 112.171 561.889 111.46C560.874 110.75 560.134 109.712 559.793 108.521C559.334 107.103 559.098 105.623 559.092 104.133C559.092 78.0268 559.092 51.9249 559.092 25.8273C559.092 20.8261 556.917 18.5881 551.903 18.5881H544.402C539.4 18.5881 537.338 20.5636 537.325 25.5272C537.325 39.2137 537.333 52.9085 537.35 66.6116L537.337 66.5617Z" fill="#8A9294"></path><path d="M83.4706 131.364L95.7234 133.54C96.2191 133.571 96.7016 133.712 97.1363 133.952C97.6612 134.27 98.0457 134.775 98.2115 135.365C98.1591 135.667 98.0337 135.951 97.8463 136.193C97.6589 136.435 97.4151 136.627 97.1363 136.753C95.426 137.262 93.6898 137.679 91.9351 138.003C89.2928 138.537 86.6463 139.033 83.9957 139.491C83.4498 139.53 82.9315 139.746 82.5205 140.107C82.1095 140.469 81.8283 140.955 81.7202 141.492C79.8073 148.193 77.9694 154.92 75.8564 161.571C72.8557 171.098 68.7923 180.15 62.1907 187.827C59.0545 191.682 55.5403 195.213 51.7008 198.367C41.7735 206.019 30.746 210.082 17.943 207.494C12.5543 206.407 8.36584 203.931 5.77775 199.055C4.40705 196.148 3.82496 192.931 4.08986 189.728C4.36455 181.933 7.0951 174.424 11.8917 168.273C16.9737 161.666 22.9927 155.837 29.7583 150.969C34.2945 147.381 39.2229 144.319 44.4491 141.842C47.2998 140.591 50.138 139.266 53.3887 137.778C53.4808 138.96 53.4808 140.147 53.3887 141.329C52.9886 143.692 52.4885 146.043 51.8884 148.356C51.6637 149.092 51.1967 149.731 50.5631 150.169C46.0745 153.132 41.4485 155.882 37.0224 158.921C29.8493 163.806 23.9572 170.346 19.8435 177.987C18.0134 181.224 17.0689 184.885 17.1054 188.602C17.2304 193.303 20.2686 195.804 24.9197 195.091C30.5585 194.241 34.8469 191.128 38.4228 186.94C47.6499 176.137 52.8011 163.359 56.1393 149.756C58.5635 139.45 60.0986 128.955 60.7279 118.386C61.103 113.01 61.5781 107.634 61.9782 102.258C62.0461 101.718 61.9549 101.17 61.7156 100.682C60.9404 101.57 60.1028 102.42 59.3776 103.358C55.3141 108.659 51.4132 114.098 47.1998 119.274C42.6737 124.838 37.3725 129.676 30.671 132.465C23.4693 135.465 16.2302 135.253 9.41608 131.077C6.36861 129.014 4.07376 126.017 2.87708 122.537C0.301488 116.286 -0.0861027 109.622 0.0139203 102.958C0.380326 88.9219 2.82408 75.0178 7.26559 61.6982C10.612 50.8913 14.9742 40.4256 20.2936 30.441C22.5066 26.3776 24.9947 22.4642 27.4952 18.5633C30.6437 13.6226 34.4268 9.11644 38.7478 5.16021C40.2989 3.66589 42.166 2.53947 44.2112 1.86423C46.2564 1.189 48.4272 0.982261 50.5631 1.25931C52.2162 1.56989 53.72 2.41915 54.8397 3.6745C55.9593 4.92984 56.6317 6.52059 56.752 8.19839C56.9044 11.7539 56.1787 15.2923 54.639 18.5008C49.8879 29.7534 44.9368 41.006 40.4607 52.4586C36.1347 63.4945 32.0755 74.6679 28.2829 85.9788C25.398 94.6049 23.6167 103.561 22.9817 112.635C22.8297 115.215 23.0957 117.804 23.7694 120.299C24.382 122.625 25.8824 122.937 28.0829 121.925C30.6394 120.68 32.9516 118.986 34.9094 116.923C41.3008 110.482 47.0927 103.472 52.2134 95.9811C56.3019 90.0423 60.2278 83.9783 63.8411 77.7269C65.3152 74.8418 66.3959 71.7721 67.0544 68.5998C69.4544 59.1699 72.4784 49.9098 76.1064 40.8809C80.0448 31.3918 84.7097 22.2208 90.0596 13.4496C92.4386 9.05728 95.7917 5.26796 99.8619 2.37209C103.763 -0.203505 110.739 -1.20373 114.953 2.05952C116.071 2.93951 116.997 4.03904 117.675 5.29047C118.352 6.5419 118.766 7.91871 118.891 9.33616C119.307 12.6294 118.855 15.9742 117.578 19.0384C115.078 25.4274 112.352 31.7663 109.914 38.2053C105.851 48.8828 101.787 59.5477 98.0115 70.3252C95.3108 78.0395 92.7853 85.8288 90.6973 93.7306C88.6593 101.432 87.184 109.297 85.6961 117.123C84.8584 121.374 84.3708 125.7 83.7332 130.001C83.5456 130.489 83.5081 130.977 83.4706 131.364Z" fill="#EE1668"></path><path d="M240.769 72.9757C241.519 72.0755 242.282 71.2003 243.007 70.2876C249.024 62.3806 255.817 55.0967 263.287 48.5451C268.438 44.1816 273.927 40.2807 280.578 38.4302C284.817 37.2675 288.88 37.1049 292.294 40.4807C293.528 41.6189 294.502 43.0102 295.15 44.5595C295.797 46.1089 296.102 47.7796 296.044 49.4578C295.758 56.2996 294.495 63.0655 292.294 69.5499C291.331 72.4631 290.631 75.4763 289.793 78.4394L290.193 78.727C290.681 78.2519 291.206 77.8143 291.668 77.3142C294.944 73.7634 298.057 70.025 301.533 66.6742C304.479 63.9234 307.621 61.3911 310.935 59.0975C313.183 57.6296 315.911 57.0875 318.55 57.5846C319.764 57.7704 320.906 58.2792 321.856 59.0579C322.807 59.8366 323.53 60.8564 323.951 62.0107C325.751 65.874 325.714 69.95 325.089 74.0509C323.338 85.5911 319.75 96.6811 316.712 107.909C314.408 115.71 312.78 123.696 311.848 131.777C311.448 136.115 311.31 140.529 313.511 144.517C315.711 148.506 319.65 148.856 322.475 145.305C323.988 143.404 325.214 141.266 326.576 139.253C327.239 138.266 327.827 137.24 328.639 136.328C328.799 136.132 328.999 135.973 329.226 135.861C329.452 135.749 329.7 135.686 329.952 135.678C330.214 135.842 330.438 136.059 330.611 136.315C330.783 136.571 330.899 136.861 330.952 137.165C330.954 138.507 330.764 139.841 330.39 141.129C329.588 143.999 328.195 146.669 326.301 148.969C324.406 151.268 322.051 153.146 319.387 154.482C313.748 157.208 308.31 156.107 303.596 151.906C298.595 147.48 296.494 141.579 295.044 135.328C292.706 125.25 293.719 115.248 296.032 105.321C297.545 98.8691 299.533 92.5302 301.246 86.1287C302.158 82.7279 302.921 79.2896 303.746 75.8763L303.346 75.6888C303.07 75.8284 302.817 76.0098 302.596 76.2264C297.37 83.328 291.918 90.2797 287.03 97.6063C282.354 104.608 278.278 112.035 273.914 119.211C272.169 122.215 269.472 124.551 266.25 125.85C264.43 126.599 262.405 126.683 260.53 126.086C258.654 125.489 257.05 124.25 255.998 122.587C254.437 120.415 253.446 117.886 253.116 115.232C252.786 112.578 253.128 109.884 254.11 107.396C256.71 100.019 258.986 92.5177 261.336 85.0534C263.689 77.3184 266.516 69.7356 269.801 62.3483C271.189 59.3101 272.389 56.1843 273.652 53.0961C273.799 52.6469 273.912 52.1872 273.989 51.7208L273.602 51.3707C271.751 52.746 269.851 54.0213 268.075 55.5217C257.522 64.8475 248.502 75.7752 241.344 87.9041C237.356 94.4556 233.743 101.245 230.179 108.034C228.779 110.709 228.054 113.723 226.866 116.536C224.866 121.299 222.09 125.45 216.964 127.338C211.838 129.226 207.324 127.101 206.561 121.274C205.949 116.611 206.336 111.81 206.311 107.071C206.311 106.208 206.436 105.333 206.549 104.083C206.176 104.343 205.817 104.623 205.474 104.921C201.61 108.884 197.972 113.085 193.846 116.761C188.349 121.797 181.771 125.505 174.616 127.601C171.389 128.485 167.959 128.265 164.872 126.976C161.784 125.687 159.216 123.403 157.575 120.487C156.325 118.336 155.387 116.023 154.187 113.56C153.324 114.26 152.449 114.948 151.599 115.673C146.925 119.796 141.754 123.32 136.208 126.163C131.769 128.313 127.156 129.501 122.317 128.438C115.928 127.051 112.315 122.537 110.452 116.561C107.514 107.134 108.914 97.8064 111.464 88.5418C113.336 82.4401 115.789 76.5325 118.791 70.9002C120.692 67.0743 122.655 63.336 125.843 60.4353C128.793 57.7472 132.094 55.5717 136.27 55.4342C139.608 55.3591 141.509 57.2095 141.971 60.5228C142.373 63.3524 142.094 66.2368 141.159 68.9373C138.758 76.0764 136.295 83.1905 133.982 90.3422C132.007 96.4436 130.381 102.607 131.081 109.096C131.582 113.698 133.682 115.148 138.108 113.573C139.54 113.002 140.894 112.25 142.134 111.335C144.435 109.759 146.648 108.059 148.873 106.396C152.834 103.487 155.613 99.2479 156.7 94.4556C158.329 87.8647 160.311 81.3663 162.639 74.9886C164.939 68.7372 168.227 62.9484 173.691 58.7349C176.642 56.4719 179.83 55.2091 183.556 56.997C184.593 57.4445 185.489 58.1643 186.149 59.08C186.81 59.9958 187.21 61.0733 187.307 62.1982C187.882 66.2741 186.657 69.9625 185.131 73.6508C182.381 80.3399 179.455 86.9789 177.167 93.8305C175.642 98.3815 175.054 103.258 174.154 107.996C173.967 109.185 173.967 110.396 174.154 111.585C174.654 115.423 176.967 116.811 180.405 115.26C184.484 113.516 188.215 111.051 191.42 107.984C195.771 103.745 200.31 99.7068 204.736 95.5434C205.932 94.4115 207.059 93.2091 208.112 91.9425C208.655 91.3098 209.055 90.568 209.287 89.7671C211.992 79.8453 215.405 70.1305 219.502 60.6979C222.184 54.2563 225.877 48.284 230.442 43.0063C231.502 41.6451 232.832 40.518 234.349 39.6961C235.866 38.8741 237.537 38.375 239.256 38.2302C244.257 37.8926 247.658 40.8933 247.683 45.932C247.608 49.7857 246.851 53.5955 245.445 57.1846C243.778 61.7856 242.14 66.3908 240.532 71.0002C240.388 71.5169 240.284 72.0434 240.219 72.5756L240.769 72.9757Z" fill="#EE1668"></path><path d="M463.946 141.754C465.262 143.419 465.872 145.533 465.646 147.643C465.321 151.394 463.395 154.395 461.057 157.183C456.056 163.172 449.305 165.722 441.778 166.497C431.326 167.573 421.311 165.472 411.558 161.909C408.008 160.659 404.507 159.171 401.019 157.708C399.768 157.183 399.431 157.87 399.043 158.758C396.933 163.722 394.148 168.371 390.766 172.574C387.209 177.006 383.189 181.046 378.776 184.627C373.717 188.775 367.899 191.9 361.647 193.829C356.833 195.304 351.907 196.592 346.781 195.667C338.392 194.166 333.228 189.065 331.052 180.951C329.152 173.837 330.602 167.123 333.866 160.671C337.934 152.187 344.558 145.191 352.807 140.666C360.795 136.13 370.184 134.722 379.151 136.715C378.991 138.106 378.719 139.482 378.338 140.829C377.238 143.817 375.9 146.718 374.775 149.693C374.287 150.944 373.525 150.944 372.274 150.944C369.415 150.556 366.533 150.372 363.647 150.394C358.473 150.647 353.471 152.34 349.207 155.282C345.086 157.874 341.992 161.816 340.455 166.435C338.992 171.023 338.729 175.699 341.142 180.1C343.643 184.689 346.394 185.614 351.382 184.251C359.021 182.163 364.423 177.062 368.886 170.873C377.551 158.908 382.552 145.267 386.053 131.114C388.253 122.225 389.541 113.11 391.229 104.083C391.312 103.523 391.22 102.951 390.966 102.445C390.029 103.283 389.016 104.07 388.153 104.946C383.826 109.763 378.997 114.105 373.75 117.899C367.848 121.937 361.522 124.288 354.22 123.287C351.35 122.849 348.67 121.581 346.511 119.64C344.352 117.698 342.807 115.168 342.068 112.36C340.155 105.246 340.73 98.1817 342.293 91.105C344.906 79.3398 350.169 68.7499 356.921 58.8726C360.447 53.7214 368.849 53.3338 372.887 58.0474C374.462 59.8853 374.425 62.0984 374.137 64.2989C373.331 70.6385 371.757 76.8564 369.449 82.8156C367.498 87.9293 365.698 93.118 364.16 98.3817C363.197 101.657 362.122 104.971 362.485 108.522C362.785 111.497 364.123 112.435 366.723 110.897C369.855 109.033 372.846 106.943 375.675 104.646C381.819 99.5602 387.315 93.7405 392.042 87.3167C393.992 84.5406 395.459 81.4547 396.38 78.1895C398.305 72.2632 400.131 66.2993 402.419 60.5105C403.766 56.6307 406.543 53.4111 410.183 51.5084C413.934 49.708 420.636 50.2581 423.149 54.6591C424.22 56.4183 424.714 58.4688 424.562 60.523C423.294 74.3582 420.911 88.0685 417.435 101.52C414.322 113.498 410.746 125.338 407.345 137.241C406.732 139.391 405.957 141.504 405.37 143.667C405.332 143.921 405.356 144.18 405.441 144.421C405.526 144.663 405.669 144.881 405.857 145.055C417.722 152.244 430.25 157.395 444.466 156.958C450.955 156.758 456.806 154.732 460.87 149.393C462.258 147.568 462.745 145.055 463.645 142.854C463.758 142.592 463.796 142.354 463.946 141.754Z" fill="#EE1668"></path><path d="M646.238 18.5761C651.839 18.5761 657.49 18.451 663.042 18.5761C667.964 18.5819 672.789 19.9493 676.982 22.527C679.193 23.8379 681.039 25.6838 682.35 27.8948C683.661 30.1058 684.395 32.611 684.484 35.1799C684.866 41.4672 684.866 47.7719 684.484 54.0592C684.33 57.6617 683.15 61.1452 681.084 64.0999C679.017 67.0546 676.15 69.3577 672.819 70.7381C672.535 70.8277 672.265 70.9582 672.019 71.1257C671.62 71.3736 671.317 71.7478 671.156 72.1884C671.213 72.4473 671.322 72.6918 671.476 72.9069C671.631 73.1219 671.829 73.3029 672.056 73.4387C673.582 74.3764 675.282 75.0516 676.72 76.1143C679.04 77.7944 680.947 79.9798 682.299 82.5053C683.651 85.0308 684.411 87.8304 684.522 90.6927C684.872 96.569 684.772 102.483 684.634 108.372C684.409 117.549 678.733 122.825 671.406 124.788C667.892 125.724 664.277 126.232 660.641 126.301C650.439 126.501 640.236 126.376 630.034 126.376C625.095 126.376 622.345 123.638 622.345 118.674C622.345 90.2676 622.345 61.8652 622.345 33.467C622.345 30.9664 622.345 28.3658 622.345 25.8153C622.407 21.3267 625.058 18.6011 629.534 18.5511C635.135 18.5511 640.786 18.5511 646.338 18.5511L646.238 18.5761ZM644.275 95.8689H644.025C644.025 98.8195 644.025 101.77 644.025 104.708C644.137 110.785 646.263 112.623 651.701 112.46C657.653 112.285 661.816 109.084 662.454 103.183C662.937 98.9156 663.012 94.6118 662.679 90.3301C661.991 82.3157 656.89 78.4399 649.151 79.5401C646.225 79.9527 644.475 81.453 644.325 84.3537C644.137 88.1796 644.3 92.0305 644.3 95.8689H644.275ZM644.275 48.7455H644.037C644.037 52.0463 644.037 55.347 644.037 58.6478C644.112 62.1986 645.388 64.0865 648.063 64.8992C654.427 66.8622 660.566 63.6489 662.141 57.1599C663.303 51.7717 663.358 46.2039 662.304 40.7937C662.05 38.6521 661.066 36.6634 659.518 35.1626C657.969 33.6618 655.95 32.7406 653.802 32.5543C652.51 32.4205 651.211 32.3788 649.914 32.4292C646.638 32.4292 644.55 33.9671 644.312 37.2054C644.087 41.0437 644.3 44.8946 644.3 48.733L644.275 48.7455Z" fill="white"></path><path d="M452.118 72.3754C452.118 57.3719 452.118 42.3685 452.118 27.365C452.072 25.9216 452.198 24.4778 452.493 23.064C452.787 21.7565 453.529 20.5931 454.591 19.7755C455.653 18.958 456.968 18.5379 458.307 18.588C461.308 18.588 464.308 18.588 467.309 18.588C469.003 18.5545 470.641 19.1935 471.864 20.3653C473.087 21.5371 473.796 23.1459 473.835 24.8394C473.923 27.14 473.835 29.4405 473.835 31.741C473.835 40.6931 473.835 49.6452 473.835 58.5972C473.802 59.1468 473.802 59.698 473.835 60.2476C474.236 63.4858 475.386 64.8737 478.624 65.1612C481.606 65.4365 484.607 65.4365 487.589 65.1612C491.164 64.8111 492.59 62.9732 492.59 59.3224C492.59 50.9871 492.59 42.6519 492.59 34.3166C492.59 31.466 492.59 28.6153 492.59 25.7646C492.59 21.2386 495.265 18.6255 499.804 18.6255H507.906C508.696 18.58 509.488 18.6912 510.235 18.953C510.982 19.2147 511.67 19.6217 512.259 20.1504C512.849 20.6792 513.327 21.3194 513.668 22.034C514.009 22.7486 514.205 23.5236 514.245 24.3143C514.407 26.1522 514.407 28.0652 514.407 29.8531C514.407 59.3015 514.407 88.7541 514.407 118.211C514.433 119.761 514.196 121.304 513.707 122.774C513.317 123.846 512.594 124.764 511.645 125.396C510.696 126.028 509.57 126.341 508.431 126.288C505.28 126.363 502.13 126.363 498.979 126.288C495.303 126.2 492.727 123.275 492.727 119.274C492.727 108.271 492.727 97.2728 492.727 86.2786C492.744 85.4802 492.698 84.6817 492.59 83.8905C492.525 82.6203 491.965 81.426 491.03 80.5636C490.095 79.7012 488.86 79.2393 487.589 79.2769C484.751 79.1394 481.887 79.1394 479.049 79.2769C477.795 79.2349 476.574 79.6803 475.641 80.5195C474.709 81.3588 474.138 82.5267 474.048 83.778C473.928 84.6059 473.873 85.442 473.886 86.2786C473.886 97.031 473.886 107.779 473.886 118.523C473.904 119.469 473.807 120.414 473.598 121.337C473.293 122.758 472.502 124.029 471.361 124.931C470.22 125.832 468.8 126.308 467.347 126.275C464.396 126.275 461.445 126.275 458.494 126.275C456.922 126.315 455.396 125.747 454.231 124.69C453.067 123.633 452.355 122.168 452.243 120.599C452.166 119.801 452.133 119 452.143 118.198C452.126 102.912 452.118 87.6372 452.118 72.3754Z" fill="white"></path><path d="M537.35 66.612C537.35 52.9089 537.35 39.2057 537.35 25.5026C537.35 20.5014 539.426 18.5635 544.427 18.5635H551.928C556.93 18.5635 559.118 20.739 559.118 25.8027C559.118 51.9087 559.118 78.0105 559.118 104.108C559.123 105.598 559.359 107.079 559.818 108.497C560.159 109.688 560.899 110.726 561.914 111.436C562.93 112.146 564.158 112.486 565.394 112.398H571.095C571.959 112.463 572.827 112.35 573.645 112.066C574.463 111.782 575.214 111.333 575.852 110.747C576.49 110.161 577 109.45 577.352 108.659C577.704 107.867 577.889 107.012 577.897 106.146C577.972 105.296 577.984 104.446 577.984 103.646C577.984 77.6896 577.984 51.7378 577.984 25.7901C577.984 20.789 580.197 18.601 585.236 18.601H592.738C597.739 18.601 599.864 20.7015 599.864 25.6901C599.864 51.7961 599.864 77.898 599.864 103.996C599.931 106.932 599.675 109.867 599.102 112.748C597.376 120.324 592.188 124.413 584.749 125.738C582.239 126.144 579.701 126.345 577.159 126.338C570.908 126.426 564.556 126.401 558.255 126.338C554.043 126.433 549.875 125.474 546.127 123.55C543.853 122.32 541.907 120.561 540.454 118.422C539.001 116.284 538.082 113.827 537.775 111.26C537.479 109.286 537.341 107.292 537.363 105.296C537.363 92.393 537.363 79.49 537.363 66.537L537.35 66.612Z" fill="white"></path><path d="M644.3 95.8675C644.3 92.0291 644.137 88.1782 644.3 84.3523C644.462 81.4641 646.212 79.9513 649.126 79.5387C656.877 78.451 661.979 82.3143 662.654 90.3287C662.987 94.6104 662.912 98.9141 662.429 103.182C661.804 109.083 657.64 112.284 651.676 112.459C646.225 112.609 644.112 110.783 644 104.707C644 101.756 644 98.8181 644 95.8675H644.25H644.3Z" fill="#8A9294"></path><path d="M644.3 48.7319C644.3 44.8935 644.087 41.0301 644.362 37.2168C644.6 33.9785 646.688 32.4406 649.963 32.4406C651.261 32.3902 652.56 32.4319 653.852 32.5657C656 32.752 658.019 33.6732 659.567 35.174C661.116 36.6748 662.1 38.6635 662.354 40.8051C663.408 46.2153 663.352 51.7831 662.191 57.1713C660.666 63.6353 654.477 66.8736 648.113 64.9106C645.437 64.0854 644.162 62.185 644.087 58.6592C644.012 55.3584 644.087 52.0576 644.087 48.7569H644.325L644.3 48.7319Z" fill="#8A9294"></path></svg>